<svg version="1" xmlns="http://www.w3.org/2000/svg" width="976" height="976" viewBox="0 0 732.000000 732.000000"><path d="M178 1.1c0 .5.5.7 1 .4.6-.3 1-.8 1-1.1 0-.2-.4-.4-1-.4-.5 0-1 .5-1 1.1zM181.9 2.7c-.1.5-.1 1.1 0 1.5 0 .3-1.1.5-2.4.3-1.3-.1-3.1.6-4 1.5-1.5 1.6-1.4 1.7 1.2 1.2 1.5-.2 2.6-.2 2.3.1-.3.3-1.7.7-3 .9-1.4.2-3.2.8-4 1.3-1.3.7-1.3.6-.2-.7 1-1.2 1-1.8-.2-2.8-1.3-1-1.5-.8-1.1.9.2 1.1-.2 2.7-1 3.5-.8.7-1.1 1.6-.8 2 .4.3-.3.6-1.5.6s-2.2-.6-2.2-1.3c0-.8-.4-.7-1 .3-.9 1.3-1 1.3-1 0s-.1-1.3-1 0c-.5.8-1 1.1-1 .7 0-.4-.6-.2-1.4.5-.7.7-1.2 2.3-1 3.5.3 1.3 0 2.3-.5 2.3s-.7 1.4-.4 3.1c.3 2.3.1 2.9-.8 2.4-.7-.5-1-.4-.5.3 1.2 2 1.4 24.2.2 24.2-.7 0-.8.3-.1.8 1.5 1 1.5 180.4.1 181.4-.7.5-.8.8-.1.8 1.2 0 1.2 4 0 6-.5.7-.4 1.1.1.7.6-.3 1 23.9 1 60.9.1 44.2-.2 61.4-1 61.4-.7 0-.8.3-.1.8.6.4 1.1 4.6 1.1 9.4.1 7.5-.1 8.8-1.5 8.8s-1.4.2-.1 1c1.3.8 1.5 18.4 1.6 147.9 0 80.8-.4 146.7-.8 146.5-.5-.3-1.4-.1-2.1.4-.7.6-2.3 1.2-3.7 1.5-1.5.2-.5.5 2.2.6l4.8.1-.1 6c-.1 3.7.4 6.7 1.2 7.7 1 1.2 1 1.5.2.9-2.1-1.2-1.5.8.7 2.7 1.2 1 2.9 1.6 3.8 1.5.9-.2 1.6.3 1.4.9-.1.7.3 1.3.9 1.3.6 0 .9-.9.6-1.9-.3-1.4-.1-1.8.9-1.4.7.3 1.3.8 1.2 1.1 0 .4 0 1.2.1 1.7.1 1.3 81.1 1.4 81.1.2 0-.4.6-.5 1.2-.1 1.8 1.1 58.8 1.2 58.8.2 0-.5.5-.6 1.2-.2 1.6 1 66.8 1.2 66.8.2 0-.4 1-.4 2.3 0 1.6.7 171.8.9 187 .3 1.5-.1 2.6-.6 2.5-1.2-.2-.6.2-1.3.9-1.6.8-.3 1.1.3.8 1.6-.2 1.4.1 1.8 1.1 1.4.7-.3 1.2-.9.9-1.3-.3-.4.2-1.3 1-2s1.5-1.9 1.5-2.7c0-.9.6-1.3 1.5-.9.8.3 1.5.1 1.5-.3 0-.5-.5-1.1-1.1-1.3-.7-.2-.5-.9.5-1.7 1.4-1.2 1.6-1.2 1 .3-.4 1.1-.1 1.6 1.2 1.6 1.1 0 1.5.4.9.8-.5.4-1.1 1.3-1.3 2-.2.9.4.9 2.1-.3 1.3-.8 2.6-1.3 2.9-1 .3.3.8-2 1.1-5.2.3-3.2.5-155.9.5-339.3 0-274.3-.3-334-1.4-336.1-1-2-1-2.9-.1-3.8 1.3-1.3-.2-1.5-2.3-.2-.8.6-1.9.7-2.5.3-1.9-1.2-5.2-.9-5.2.4 0 1 .4 1.1 1.3.3 1.9-1.6 2.9 1 1.1 2.8-1.4 1.4-1.7 1.2-3.1-1.4-.8-1.7-1.2-3.4-.8-3.9.4-.5.3-.5-.3-.1-1 .9-1.1 1.3-1.4 4.3 0 .8-.5 1.2-1.1.9-.5-.3-1 0-1 .7 0 .9-.3.9-1-.2-.9-1.3-1.4-1.1-3.6 1.4-1.9 2.2-2.2 3.1-1.3 4.2.6.8.7 1.4.2 1.4-1 0-1.3 2.2-1.4 11.7-.1 4-.5 6-1.2 5.6-.6-.3-.7-.1-.3.5.7 1.2-2.9 14.4-6.1 22.7-.8 2.2-1.6 4.7-1.8 5.5-.2.8-1.3 4.4-2.5 8-1.1 3.6-2.3 7.8-2.6 9.5-.3 1.6-.9 3.4-1.4 4-.4.5-1.1 2.3-1.5 4-1.2 4.4-1.2 4.5-1.5 5-.1.3-.3.8-.4 1.2-.1.5-.5 1.4-.9 2-.5.7-.6 1.3-.3 1.3s-.1 1.7-.8 3.7c-.8 2.1-3.1 9.2-5.1 15.8-3.8 12.2-6.1 19.4-7.5 23-1 2.7-4.3 13.7-4.6 15.5-.1.8-1 3.7-2 6.5-2.1 6.2-2.7 7.9-2.8 8.5-.1.3-.5 1.1-1 1.8-.4.7-.6 1.6-.3 1.8.3.3-.1 1.7-.8 3.1-.8 1.5-1.2 3-.9 3.5.3.4 0 .8-.6.8s-.9.4-.5 1c.3.5.1 1.7-.4 2.7-.5 1-2 5.2-3.2 9.3-1.2 4.1-3.3 10.8-4.7 14.9-1.3 4.1-2.5 7.9-2.7 8.5-.1.6-.4 1.8-.8 2.6-1.1 2.9-5.9 18.2-6.2 19.8-.2.9-1.5 5.3-3 9.7-1.4 4.4-3.3 10.5-4.2 13.5-.9 3-2.2 6.9-2.9 8.5-.7 1.7-1.5 4.2-1.8 5.5-.2 1.4-1.6 5.9-3.1 10s-2.8 8.4-3 9.5c-.2 1.1-1.7 6-3.4 11-1.7 4.9-3.2 9.2-3.2 9.5-.4 1.8-7.9 25.9-9 29-.5 1.4-1.2 3.9-1.5 5.5-.3 1.6-.9 3.4-1.3 4-.5.5-1.2 2.6-1.6 4.5-.4 1.9-1.1 3.9-1.5 4.5-.5.5-1.1 2.3-1.4 4-.5 3.3-2.8 10.6-4.4 14.5-1 2.3-7.1 22-7.7 24.5-.1.5-.7 2.1-1.2 3.5-.6 1.4-1.4 4-1.8 5.9-.4 1.9-1.3 4.7-1.9 6.3l-1.3 2.9-2.6-4c-1.5-2.2-2.7-4.3-2.7-4.6 0-.3-.9-1.5-2-2.7-1.1-1.2-2-2.9-2-3.7 0-.9-1.4-3.4-3-5.5-1.7-2.2-3-4.5-3-5.1 0-.6-.8-2-1.8-3.1-1-1-2.4-3.3-3.1-5-.7-1.8-2-4-3-5-.9-1.1-2.3-3.4-3.1-5.3-.7-1.8-2.4-4.6-3.6-6.1-1.3-1.5-2.8-3.8-3.4-5.1-.6-1.3-1.9-3.8-2.9-5.4-.9-1.7-3.1-5.5-4.9-8.5-1.7-3.1-4.1-6.5-5.2-7.7-1.1-1.2-2-2.8-2-3.6 0-.8-.9-2.6-2-3.9-1-1.4-1.6-2.8-1.3-3.2.3-.3-.1-.6-1.1-.6-.9 0-1.4-.5-1.1-1 .6-1-2.9-6.8-4.9-8.2-.6-.4-.7-1-.4-1.4.4-.3.2-1.2-.5-2-2.4-2.7-3.2-4-5.6-8.7-1.3-2.6-2.8-4.7-3.3-4.7-.4 0-.8-.7-.8-1.6 0-.8-1.6-3.9-3.5-6.8s-3.5-5.6-3.5-6c0-.4-.6-1.4-1.2-2.1-3-3.3-3.7-4.3-3.2-4.8.3-.2-1.1-2.5-3.1-5.1-1.9-2.5-3.5-5.2-3.5-6 0-.7-.8-2.4-1.9-3.7-1-1.3-2.6-4-3.6-5.9-1-1.9-2.6-4.2-3.5-5-.9-.8-1.5-2.1-1.3-2.8.3-.6 0-1.2-.6-1.2s-1.1-.8-1.1-1.9c0-1-.9-2.5-2-3.2-1-.8-2-2.1-2.2-2.9-.2-.8-1.5-3.4-3-5.7-1.6-2.3-2.8-4.5-2.8-4.9 0-.4-1-2.1-2.3-3.8-1.2-1.7-3.3-5.2-4.7-7.9-1.3-2.6-2.8-4.7-3.2-4.7-.5 0-.8-.9-.8-2s-.4-2-.9-2-1.1-.8-1.5-1.8c-.3-.9-1.4-3.1-2.5-4.7-1-1.7-3.5-5.9-5.6-9.5-2-3.6-4.3-6.9-5.1-7.3-.8-.4-1.4-1.8-1.4-3.1s-.7-2.9-1.6-3.7c-.8-.7-2.5-3.1-3.6-5.3-1.1-2.3-3.4-6-5-8.4-1.6-2.3-2.5-4.2-2.1-4.2.4-.1-.1-.9-1.3-1.8-1.1-1-2.4-3-2.7-4.4-.4-1.5-1.5-3.5-2.5-4.5s-2.8-3.9-4-6.5c-1.2-2.5-2.9-4.9-3.8-5.2-.8-.3-1.4-1.1-1.3-1.8.3-1.8-1.2-5.2-2.8-6.1-.7-.4-1.3-1.5-1.3-2.2 0-.8-.4-1.5-1-1.5-.5 0-1-.8-1-1.9 0-1-.7-2.4-1.5-3.1-.9-.7-2.3-2.9-3.2-4.9-1-2-2.3-4.2-3-4.9-.7-.8-2.2-3.3-3.3-5.6-1-2.4-2.6-4.9-3.5-5.6-.8-.7-1.5-2-1.5-3 0-.9-.9-2.5-2-3.5s-2-2.2-2-2.8c0-.5-1.3-2.9-3-5.4-1.6-2.4-3-4.8-3-5.4 0-.5-.5-.9-1.2-.9-.6 0-.9-.3-.6-.6.6-.6-5.1-10.8-7.5-13.6-1.8-2-4-5.8-3.3-5.8.3 0-1.1-2.4-3-5.2-1.9-2.9-3.4-5.7-3.4-6.2s-.7-1.4-1.4-2c-.8-.6-1.6-1.8-1.8-2.6-.3-1.5-1.3-3.1-3.9-5.9-.9-1-1.9-2.9-2.2-4.3-.4-1.3-1.6-3.5-2.7-4.8-1.2-1.3-3-4.2-4-6.5-2.9-5.9-7.7-14.1-12.7-21.6-3-4.6-4.1-7.1-3.7-8.4.6-1.4.4-1.7-.8-1.2-1.6.6-6.1-3.6-5.1-4.7.4-.3.1-.6-.5-.6-.7 0-1.3.3-1.3.7zM577.5 15c-.3.5-1.1 1-1.6 1-.6 0-.7-.5-.4-1 .3-.6 1.1-1 1.6-1 .6 0 .7.4.4 1zM195.2 66.5c4.4 8.5 8 14.4 9.3 15.5.8.7 1.5 2.1 1.5 3.1 0 1.1.5 1.9 1.1 1.9.5 0 .7.4.4 1-.3.5-.2 1 .3 1 .4 0 1.9 1.9 3.2 4.2 1.3 2.4 3.4 5.7 4.7 7.4 1.3 1.7 2.3 3.8 2.3 4.7 0 1 .5 1.7 1 1.7.6 0 1.8 1.7 2.7 3.7 1 2.1 3 5.7 4.6 8 1.5 2.4 2.5 4.3 2.2 4.3-.3 0 .6 1.6 2 3.5 1.5 1.9 3.5 4.9 4.4 6.7 4.2 7.7 7.6 13.3 8.3 13.6.4.2.8 1 .8 1.8s.4 1.4 1 1.4c.5 0 .9.3.9.7-.3 1.9.3 3.2 2.6 5.9 1.4 1.6 2.5 3.4 2.5 4 0 .5.8 1.9 1.8 3 .9 1 2.8 4 4.1 6.6 1.3 2.7 2.8 4.8 3.3 4.8s.8.6.5 1.2c-.2.7 1.3 3.6 3.4 6.4 2.1 2.9 3.5 5.4 3.2 5.8-.3.3.6 1.8 2 3.2 1.5 1.5 2.4 3 2.1 3.5-.3.5 0 .9.7.9s.9.3.6.7c-.4.3.4 2 1.6 3.7 1.3 1.7 3.4 5.1 4.8 7.6 1.3 2.5 2.6 4.7 2.9 5 1.2 1.1 6.7 10.7 7.9 13.7.7 1.8 1.7 3.3 2.1 3.3.4 0 1.3 1.5 2.1 3.2.7 1.8 2.1 4.4 3.1 5.7 1 1.3 1.5 2.7 1.2 3.2-.3.5-.2.8.3.7.4-.2.9.1 1.1.7.2.5 1.3 2.3 2.5 4 1.3 1.6 2.9 4.3 3.7 6 .8 1.6 2.5 4.3 3.7 5.8 1.3 1.6 2.6 3.9 2.9 5.2.3 1.3 1.2 2.6 2.1 2.9.8.3 1.1 1 .8 1.6-.3.5-.1 1 .4 1 .6 0 1.1.7 1.1 1.5 0 .9 1 2.6 2.1 3.8 1.2 1.2 2.7 3.3 3.3 4.7.7 1.4 2.3 4.3 3.6 6.5 1.4 2.2 2.5 4.2 2.5 4.5 0 .3 1 1.8 2.1 3.5 1.2 1.6 2.9 4.7 3.7 6.7.9 2.1 2 3.8 2.6 3.8.5 0 1.2 1.3 1.6 2.9.3 1.6 1.7 4 2.9 5.3 1.3 1.3 2.6 3.3 3 4.5.4 1.3 1.2 2.3 1.7 2.3s.9.7.9 1.5.8 2.4 1.8 3.5c.9 1.1 1.5 2.3 1.4 2.7-.2.3 0 .9.5 1.2 1.7 1.2 4.4 6.2 3.8 7.1-.3.6-.2 1 .3 1 1.1 0 6.2 7.5 6.2 9.1 0 .6.9 2.3 2.1 3.7 3.9 5.1 8.8 13.5 8.3 14.4-.3.4 0 .8.5.8.6 0 1.1.6 1.1 1.3 0 .8.9 2.2 1.9 3.1 1.1 1 2.2 2.9 2.6 4.3.3 1.3 1.7 3.6 3.1 5 1.9 1.9 2.2 2.8 1.4 3.8-.8 1-.6 1.5.9 2 1.2.3 2.1 1.2 2.1 1.9 0 .8.7 1.9 1.5 2.6.8.7 2.1 2.4 2.8 3.9.8 1.4 2.4 4.3 3.6 6.4 1.2 2.1 1.8 4.4 1.5 5-.4.7-.4.9.1.5.8-.8 4.2 3 4.7 5.3.2.8 1.8 3.4 3.6 5.8 1.8 2.5 3.5 5.5 3.8 6.8.4 1.3.9 2.3 1.3 2.3.3 0 1.5 1.7 2.6 3.7 1.1 2.1 2.9 5.1 4.1 6.8 1.2 1.6 3.8 6.1 5.7 9.9 2 3.7 4.4 7.7 5.3 8.7.9 1.1 1.3 1.9.9 1.9s0 1 1.1 2.2c1.2 1.4 1.4 1.9.4 1.3-1.1-.6-1.2-.5-.5.4.8.8 0 4.5-2.7 12.8-2.1 6.5-4 12.5-4.1 13.3-.1.8-.6 2-.9 2.6-.4.6-.9 2.1-1.1 3.5-.3 1.3-1.2 4.2-2.1 6.3-.9 2.1-1.6 4.7-1.6 5.7 0 1.1-.4 2.7-1 3.7-.5.9-2.5 7.1-4.5 13.7s-4.2 13.1-4.8 14.5c-.6 1.4-1.1 3.2-1.2 4-.1.8-.7 2.8-1.3 4.3-.7 1.5-1.4 4-1.8 5.5-.3 1.5-.9 3.6-1.4 4.7-.9 2.3-4.1 12.5-4.4 14-.1.5-.4 1.4-.7 2-.6.9-2 6.1-2.1 7.5 0 .3-.5 1.6-1 3-1 2.3-8.7 26.3-9.2 28.5-1.2 4.8-2.9 10.2-3.6 11-.4.5-1.1 2.8-1.4 4.9-.4 2.2-1.1 4.4-1.6 5.1-.5.6-1.1 2.2-1.4 3.5-1.1 5.5-3.8 14.5-4.4 15-.4.3-.8 1.7-1 3.2-.1 1.5-.9 3.9-1.7 5.5-.8 1.5-1.5 3.5-1.5 4.3 0 3.5-3.3-4.2-4.4-10.3-.3-1.6-.9-3.4-1.4-4-.5-.7-.9-2.1-1-3.2-.2-2.7-.7-4.5-2-7.8-.7-1.6-1.2-3.5-1.2-4.3 0-.8-.4-2.2-.9-3.2-.5-.9-1.3-3.5-1.9-5.7-.5-2.2-2.4-9-4.2-15-1.7-6.1-3.3-11.8-3.5-12.8-.2-.9-.7-2.2-1-2.7-.4-.6-.9-2.3-1.2-3.8-.6-3.5-.9-4.4-1.6-6.2-.7-1.7-3.8-13-4.1-14.5-.1-.6-.7-2.4-1.3-4-.7-1.7-2.1-6.5-3.2-10.8-1.1-4.3-2.3-8.2-2.7-8.8-.3-.6-.8-2.5-1.1-4.2-.3-1.8-.9-3.9-1.4-4.8-.4-.9-1-2.7-1.2-4-.3-1.3-1.2-4.7-2.1-7.4-2.5-8.3-5.9-19.9-6.2-21.5-.3-1.7-2.5-9-6-20.2-1.3-4.2-2.4-8.4-2.4-9.3 0-.8-.4-2.3-.9-3.3-1.1-2-9.1-28.8-9.5-31.8-.2-1.2-1-4.3-2-7-.9-2.7-3.7-12.1-6.2-20.9-2.5-8.8-5-17.2-5.4-18.8-.5-1.5-.7-2.7-.5-2.7.3 0-.4-2-1.5-4.5s-1.9-4.9-1.8-5.3c.2-.6-2.3-9.2-5.7-20.2-.8-2.5-2.2-7.2-3.1-10.5-.9-3.3-2.2-7.7-3-9.8-.8-2-1.2-3.7-.9-3.7.3 0-.2-1.7-1-3.8-.8-2-1.6-4.9-1.9-6.4-.2-1.4-.9-3.6-1.6-4.7-.6-1.2-.9-2.1-.6-2.1.3 0 .1-1.2-.4-2.8-3.1-9.8-17.9-60.4-18.5-63.2-.2-.8-.4-1.6-.5-1.8-.2-.1-.3-.5-.4-1-.1-.4-1.2-4.1-2.4-8.2-1.3-4.1-2.9-9.8-3.7-12.5-.8-2.8-2.8-9.7-4.5-15.4-1.8-5.7-3.4-11.3-3.6-12.5-.9-3.8-1.2-5.1-1.4-5.1-.1 0-.3-.7-.5-1.5-.7-3.8-6.5-22.1-7.5-24-.7-1.3-.8-2-.2-1.6 1 .6-.9-5.9-2.1-7-.4-.4-.7-1.6-.7-2.6 0-1.1-.7-4-1.4-6.6-3.5-11.1-6.8-22.5-10-33.7-1.9-6.6-3.9-13.3-4.5-14.9-.7-1.6-.9-3.1-.7-3.4.3-.2-.1-1.7-1-3.3-.8-1.6-1.2-2.9-.8-2.9.4 0 .1-.7-.6-1.5s-1-1.5-.6-1.5c.3 0 0-1.5-.7-3.3-.8-1.7-1.7-5-2.1-7.2-.4-2.2-1.1-4.4-1.4-5-.7-1.2-1.2-3.4-1.9-9.9-.4-4.3-.3-4.8.9-3.5.8.8 2.1 2.7 3 4.4zm16.8 5.1c0 .8-.5 1.2-1 .9-.6-.4-.8-1.1-.5-1.6.9-1.4 1.5-1.1 1.5.7zm363 .4c0 .5-.2 1-.4 1-.3 0-.8-.5-1.1-1-.3-.6-.1-1 .4-1 .6 0 1.1.4 1.1 1zm-11.9 30.2c-.2 19.5-.2 18.8.3 21.3.2 1.1-.1 2.8-.5 3.7-.5.9-.6 1.9-.2 2.1.9.5.8 27.1-.1 29.2-.2.7-.2 1.6.2 1.9.8.9.9 11.6 0 11.6-.4 0-.5.6-.3 1.2 1 2.6 1.3 9.8.4 10.3-.4.3-.5 1.6 0 2.8.5 1.2.6 3.1.4 4.2-.4 2.1-.4 11.8.1 23.8.1 3.7 0 7-.3 7.2-.3.2-.4 3.8-.1 8 .4 6.2.2 7.8-1 8.6-1.2.7-1.2.8.4.9 1.4 0 1.6.3.7 1.3-.6.8-.9 1.6-.6 1.9.8.7 1 17.6.3 18.3-.3.3-.2 2.2.2 4.1.4 1.9.4 3.6 0 3.9-.5.3-.5 1.8-.2 3.3.6 2.2.7 21 .3 34.7-.1 1.6 0 4.5.2 6.2.2 1.8 0 3.3-.5 3.3s-.6.5-.2 1.2c1 1.6 1.2 14.8.2 15.4-.4.3-.4 1.5.1 2.7.4 1.2.7 3.5.5 5.2-.4 3-.4 7.2 0 11 .1 1.1-.3 2.3-.9 2.7-.6.5-.6.8 0 .8 1 0 1.2 16.6.2 17.6-.2.3-.1 2.1.3 4 .7 2.8.5 3.4-.9 3.4-1.3 0-1.3.2-.2.9 1 .6 1.3 3.5 1.3 10.9 0 5.5-.3 10.5-.7 11.1-.3.6-.3 1.1.2 1.1.7 0 .8 19.6.4 55-.1 8.2-.1 35.5 0 43.5 0 3.8.1 16 .2 27s-.1 21.7-.4 23.7c-.4 2.1-.4 3.8 0 3.8.3 0 .6 1.1.6 2.5s-.4 2.5-.8 2.5c-.5 0-.5.5-.1 1.2.4.6.6 6.8.5 13.7 0 6.9-.1 13.3-.1 14.1.2 5.3 0 16.1-.3 19.2-.2 2.1-.1 3.8.2 3.8.5 0 .6 16.6.2 22.7-.2 2.1-1.8 1.4-2.5-1-.3-1.2-1.5-3.2-2.6-4.5-1.1-1.2-1.8-2.2-1.5-2.2.4 0-.7-1.9-2.4-4.2-1.7-2.3-3.1-4.7-3.1-5.4 0-.6-.8-2.2-1.9-3.5-1.9-2.4-3.9-5.9-9.3-15.8-1.6-2.9-3.6-6-4.4-6.8-.7-.8-1.7-2.5-2-3.9-.3-1.3-1-2.4-1.4-2.4-.4 0-1-.8-1.4-1.8-.7-2.2-4-7.8-5.8-10-.8-.9-2-2.8-2.6-4.2-1.2-2.5-4.4-7.9-9.2-15.5-1.4-2.2-2.5-4.4-2.5-4.8 0-.4-.5-1.1-1.1-1.5-.5-.4-1.6-2.2-2.4-4.1-.7-1.8-2.5-4.7-3.8-6.3-1.3-1.6-2.2-3.1-1.9-3.4.6-.6-.2-1.8-3.5-5.4-1-1.1-2-3.1-2.4-4.4-.3-1.3-1.4-3.2-2.5-4.2-1-.9-1.9-2.3-1.9-3.1 0-.7-.4-1.3-.9-1.3s-1.1-1-1.5-2.3c-.3-1.2-1.3-3.1-2.3-4.3-1-1.1-1.9-2.6-2.1-3.4-.2-.8-1.4-2.9-2.6-4.5-1.2-1.7-2.8-4.4-3.5-6.2-.7-1.7-2.1-3.9-3.2-4.9-1-.9-1.9-2.4-1.9-3.2 0-.8-1.1-3-2.5-4.8-1.4-1.8-2.5-3.6-2.5-3.9 0-.4-1.3-2.6-3-5-1.6-2.4-3-4.7-3-5 0-1-7.2-12.7-8.8-14.4-1.4-1.5-4.7-8.9-4.6-10.6 0-1.2 5-17.6 6.9-22.5.7-1.9 2.5-7.6 4-12.5 1.5-5 3-9.7 3.3-10.5.3-.8.6-2 .7-2.5 0-.6.7-2.4 1.5-4 .7-1.7 1.3-3.3 1.2-3.7-.1-.4.3-2 1-3.5.6-1.5 1.3-3.7 1.5-4.8.1-1.1.7-2.9 1.2-4s1.9-5.4 3.1-9.5c1.1-4.1 2.7-9.1 3.4-11 .8-1.9 2-5.6 2.6-8.3.7-2.6 1.7-4.7 2.2-4.7.5 0 .6-.4.3-1-.7-1.1 3.5-15.1 4.4-14.5.3.1.7-1.3.8-3.2.1-1.9.6-4 1.1-4.6.5-.7 1.3-2.8 1.7-4.7.4-1.9 1.2-4.4 1.8-5.5.6-1.1 1.2-3.1 1.3-4.4.2-1.3 1-4.2 1.9-6.4.9-2.2 1.3-4.2 1.1-4.5-.3-.3-.2-1 .2-1.6 1.1-1.5 5.2-13.1 5.8-16.4.3-1.5.9-3.1 1.5-3.6.5-.6.9-1.8.9-2.9 0-1 1.4-5.8 3.1-10.5 1.7-4.8 3.2-9.6 3.5-10.7.2-1.1.8-3.1 1.4-4.5.5-1.4 1.1-3.4 1.3-4.5.2-1.1.9-3.3 1.5-4.8.7-1.6 1.2-3.2 1.2-3.7 0-.8 6.6-21.5 7.7-24 .8-2 1.1-2.9 1.8-6.5.3-1.7 1-3.4 1.6-4 .5-.5.9-1.9.9-3.1 0-1.2.7-3.9 1.6-6 .9-2.1 1.8-4.6 2-5.7.3-1.6 7.7-24.8 9.1-28.7.7-1.9 1.1-3 1.6-5.5.5-2.1 4.4-14 5.4-16.5.3-.8.8-2.6 1-4 .2-1.3.8-2.9 1.3-3.5.4-.5 1-2.4 1.3-4 .2-1.7 1.2-4.7 2-6.8.9-2 1.4-3.7 1.2-3.7-.2 0 1.2-4.3 3-9.5 1.9-5.2 3.2-9.5 2.9-9.5-.3 0-.2-.6.3-1.3.4-.6.8-1.5.9-2 .1-.4.2-1 .3-1.4 0-.3.4-.3.8 0 .3.4.5 8 .4 16.9zM229 100c0 .5-.2 1-.4 1-.3 0-.8-.5-1.1-1-.3-.6-.1-1 .4-1 .6 0 1.1.4 1.1 1zm-34.9 26c.7 3 1.6 5.9 2.1 6.4.4.6.8 2 .8 3.3 0 1.3.4 3.1.9 4.1 1 1.8 4.3 12.5 4.8 15.5.2 1 2.1 7.7 4.3 14.8 2.2 7.2 4 13.7 4 14.5 0 .8.4 2.2.9 3.2.5.9 2.2 6.2 3.7 11.7 1.5 5.5 4 14.3 5.6 19.5 1.6 5.2 3.2 10.6 3.4 12 .2 1.4.8 3.6 1.3 5s1.4 4.5 2.1 7c.7 2.5 1.9 6.5 2.7 9 .8 2.5 1.6 5.2 1.8 6 .2.8.4 1.5.5 1.5.1 0 .3.7.5 1.5s1.8 6.2 3.5 12 3.2 11.3 3.3 12.2c.1 1 .4 1.8.7 1.8.4 0 .7.6.7 1.2.2 1.9 7.3 28 8.4 30.3.8 1.8 2.3 6.9 7.5 25 .8 2.7 1.7 6.1 2 7.5.2 1.4.8 3.4 1.1 4.5.4 1.1.7 2.2.8 2.5 0 .3.8 2.7 1.7 5.5 2.5 8.1 4.2 13.9 4.4 15.5.1.8.8 3.2 1.7 5.2.8 2 1.3 3.8 1.1 4.1-.3.3.2 2.2 1.1 4.3.9 2.2 1.8 4.6 2 5.4.4 1.8 3.1 11.6 5 18 .8 2.5 2.8 9.2 4.5 15 3.7 12.4 9 31.5 9.6 35 .3 1.3.9 2.9 1.5 3.6.5.6 1 2.3 1.1 3.8.1 1.4.5 2.6.9 2.6.3 0 .6.6.6 1.2 0 .7.8 4 1.7 7.3 1 3.3 2 6.7 2.2 7.5.2.8 1.9 6.8 3.7 13.2 1.9 6.5 3.2 12 2.9 12.3-.3.3-.1.5.5.5s1.3 1.2 1.6 2.8c.3 1.5 1.2 5.2 2.1 8.2 2.1 6.9 2.3 7.7 3.5 12 1.6 6.2 4.9 17.3 7.1 24.5 1.2 3.8 2.3 7.7 2.5 8.5.2.8.4 1.5.5 1.5.1 0 .3.9.5 2s1.5 5.8 3 10.5c1.4 4.7 2.8 9.2 3 10 .2.8 1.2 4.2 2.1 7.5.9 3.3 1.7 6.7 1.9 7.5.2.8 1.5 5.1 2.9 9.5 1.5 4.4 3.6 11.4 4.7 15.5s3.9 13.3 6.1 20.5c5.3 17.4 5.2 16.5 2 16.5-25.1.3-159.7-.1-160-.5-.4-.3-.6-542.8-.2-554 .1-4 1.3-1.8 3.1 5.5zm73.9 39.1c0 .4-.6.9-1.3 1.2-.8.3-1.4 0-1.4-.7s.6-1.3 1.4-1.3c.7 0 1.3.4 1.3.8zm308 1.5c0 .2-.7.4-1.5.4s-1.5-.4-1.5-1c0-.5.7-.7 1.5-.4.8.4 1.5.8 1.5 1zm-47.8 4.6c-.7.7-1.2.8-1.2.2 0-1.4 1.2-2.6 1.9-1.9.2.3-.1 1.1-.7 1.7zM279 183.4c0 .3-.4.8-1 1.1-.5.3-1 .1-1-.4 0-.6.5-1.1 1-1.1.6 0 1 .2 1 .4zm7 8.1c0 .2-1 .9-2.2 1.5-2.2 1.1-2.2 1-.4-.4 2.1-1.7 2.6-1.9 2.6-1.1zm27 46.9c0 .2-.7.7-1.6 1-.8.3-1.2.2-.9-.4.6-1 2.5-1.4 2.5-.6zm3.4 10.2c.3.8.2 1.2-.4.9-.6-.3-1-1-1-1.6 0-1.4.7-1.1 1.4.7zm16.6 25.8c0 .3-.4.8-1 1.1-.5.3-1 .1-1-.4 0-.6.5-1.1 1-1.1.6 0 1 .2 1 .4zm242 3.6c0 .5-.2 1-.4 1-.3 0-.8-.5-1.1-1-.3-.6-.1-1 .4-1 .6 0 1.1.4 1.1 1zm-224 26.4c0 .2-.7.7-1.6 1-.8.3-1.2.2-.9-.4.6-1 2.5-1.4 2.5-.6zm224.5 3.6c.3.6-.1.7-.9.4-1.8-.7-2.1-1.4-.7-1.4.6 0 1.3.4 1.6 1zm-219 6c.3.5.1 1-.4 1-.6 0-1.1-.5-1.1-1 0-.6.2-1 .4-1 .3 0 .8.4 1.1 1zm218.2 4.2c-.3.8-.6.5-.6-.6-.1-1.1.2-1.7.5-1.3.3.3.4 1.2.1 1.9zM369.5 337c-.3.5-1.2 1-1.8 1-.7 0-.6-.4.3-1 1.9-1.2 2.3-1.2 1.5 0zm206.6 18.8c-.7.2-1.8-.1-2.3-.6-.8-.8-.4-.9 1.3-.5 1.3.4 1.8.8 1 1.1zM391.5 374c-.3.5-1.2 1-1.8 1-.7 0-.6-.4.3-1 1.9-1.2 2.3-1.2 1.5 0zm4.5 5.4c0 .2-.7.6-1.5 1-.8.3-1.5.1-1.5-.4 0-.6.7-1 1.5-1s1.5.2 1.5.4zm180 4c0 .2-.7.6-1.5 1-.8.3-1.5.1-1.5-.4 0-.6.7-1 1.5-1s1.5.2 1.5.4zm-175 3c0 .2-.8 1-1.7 1.7-1.6 1.3-1.7 1.2-.4-.4 1.3-1.6 2.1-2.1 2.1-1.3zm15.8 31.1c-.3.3-.9-.2-1.2-1.2-.6-1.4-.5-1.5.5-.6.7.7 1 1.5.7 1.8zm6.2 8.5c0 .5-.4 1-1 1-.5 0-1-.5-1-1 0-.6.5-1 1-1 .6 0 1 .4 1 1zm152.5 4c.3.5-.1 1-1 1s-1.3-.5-1-1c.3-.6.8-1 1-1 .2 0 .7.4 1 1zm-136 48.1c-.4.5-.1.9.4.9.6 0 1.1.7 1.1 1.5s.5 1.5 1 1.5c.6 0 1 .6 1 1.4 0 .7.6 1.9 1.4 2.5.8.7 1.8 2.6 2.1 4.2.4 1.7.9 2.8 1.2 2.5.6-.6 3.4 4 3.7 6.2.1.8.9 1.8 1.7 2.3.8.5 1 .9.4.9-.5 0-.2.5.8 1.1 1.2.7 1.6 1.7 1.1 3.1-.4 1.4-.3 1.8.6 1.3.7-.4 1.3.1 1.7 1.4.3 1.2.9 2.1 1.3 2.1s1.5 1.8 2.5 4 2.2 4 2.6 4c.4 0 1.3 1.6 2 3.5s1.7 3.5 2.1 3.5c.9 0 3.2 5 3 6.2-.1.5.2.8.8.8.6 0 1 .5 1 1.2 0 .6 1.2 2.7 2.7 4.7 1.5 1.9 2.9 4.5 3 5.6.2 1.1 1.1 2.7 2.1 3.5.9.8 1.9 2.4 2 3.5.2 1 1.1 2.5 2 3.2 1 .7 1.3 1.3.9 1.3-.5 0-.2.7.5 1.5 3 3.3 3.8 4.5 3.2 4.5-.3 0 .6 1.6 2 3.5 1.5 1.9 2.3 3.5 1.9 3.5-.4 0-.3.4.2.8 1.1.8 1.3 1.1 7.5 11.7 2.3 3.8 4.2 7.4 4.3 7.9.1.5 1.3 2.2 2.6 3.7 2.8 3.3 5.1 7.6 5.1 9.5 0 .8.4 1.4.9 1.4s1.5 1.6 2.2 3.5c.7 1.9 1.7 3.5 2.3 3.5.5 0 .7.3.4.6-.3.3.5 1.7 1.8 3.1 1.3 1.4 2.1 2.9 1.8 3.4-.3.5-.1.9.5.9 1.1 0 7.7 12 7.3 13.3-.1.5.2.6.7.3.9-.6 2.1 1.4 2.7 4.2.1.8 1 2.2 2 3.3.9 1 1.4 1.9 1 1.9-.4 0-.1.6.6 1.4 2.1 2.2 12.1 18.1 13.9 22.1.5 1.1 2 3.6 3.3 5.6 1.4 2.1 1.9 3.6 1.3 3.7-1.1.1-156.8.3-173.3.2h-7.2l1.5-4.3c.7-2.3 1.6-4.9 2-5.7.3-.8.7-2 .8-2.5.2-.6 1.6-5.1 3.3-10 5.2-15.4 8-25.3 7.4-25.9-.3-.3.1-.6.8-.6.7 0 1.1-.3.7-.6-.3-.3.3-2.6 1.4-5.2 1.1-2.5 2.1-5.7 2.3-7.1.2-1.4 2-7.6 4-13.6 2.1-6.1 3.9-12 4.2-13.2.2-1.2.9-3.5 1.5-5 .6-1.6 1-3 1.1-3.3 0-.3.4-1.1 1-1.8.6-.6.8-1.2.4-1.2-.3 0 .1-1.7.8-3.8 2.2-5.8 6-18.6 5.8-19.5-.1-.4.2-.7.6-.7.4 0 .9-1.1 1-2.4.1-1.3.7-3.7 1.3-5.2.7-1.6 1.4-3.7 1.5-4.6.2-.9 1.8-5.9 3.5-11s3.2-9.8 3.3-10.3c.1-.6.5-1.5.8-2.1.4-.6.9-2.2 1.2-3.6.2-1.5.9-3.5 1.5-4.6.6-1.2 1.1-2.7 1.1-3.6 0-.8.5-2.7 1.2-4.3 1.4-3.5 1.3-3.1 2.2-7.6.5-2 1.1-3.7 1.5-3.7.4 0 .7-1 .8-2.3.3-3.7 2.5-9.7 3.5-9.1.4.3.6 1 .3 1.5zm37.8 41.4c-.3.9-.8 1.4-1 1.1-.3-.3-.2-.9.2-1.5.9-1.6 1.5-1.3.8.4zM484 530c0 .5-.5 1-1.1 1-.5 0-.7-.5-.4-1 .3-.6.8-1 1.1-1 .2 0 .4.4.4 1zm34.1 55.3c-1 .9-1.1.8-.5-.6.3-1 .9-1.5 1.2-1.2.3.3 0 1.1-.7 1.8zM527 604c0 .5-.2 1-.4 1-.3 0-.8-.5-1.1-1-.3-.6-.1-1 .4-1 .6 0 1.1.4 1.1 1zm7 8.5c-.7.9-1.5 1.3-1.7 1.1-.7-.7.7-2.6 1.9-2.6.6 0 .6.6-.2 1.5zm11 18.9c0 .3-.4.8-1 1.1-.5.3-1 .1-1-.4 0-.6.5-1.1 1-1.1.6 0 1 .2 1 .4zm5 9.6c0 .5-.8 1-1.7 1-1.5 0-1.6-.2-.3-1 1.9-1.2 2-1.2 2 0zm2 3c-2 1.3-3.3 1.3-2.5 0 .3-.6 1.4-1 2.3-1 1.5 0 1.5.2.2 1zm4.8 4.1c-.6.4-.8 1.6-.5 2.8.3 1.2.1 2.4-.4 2.7-.5.3-.9.2-.8-.3.4-2.1-.3-3.3-1.8-3.4-1.6-.1-1.6-.2 0-.6 1.3-.3 1.7-1.1 1.4-2.3-.4-1.6-.2-1.7 1.4-.7 1.2.7 1.4 1.4.7 1.8zm17.9.1c-.3.8-.6.5-.6-.6-.1-1.1.2-1.7.5-1.3.3.3.4 1.2.1 1.9zm-.2 2.8c.3.5.1 1-.4 1-.6 0-1.1-.5-1.1-1 0-.6.2-1 .4-1 .3 0 .8.4 1.1 1zM355 655.7c-1.1 1.7-1.1 1.7-.6 0 .3-1 .6-2.4.7-3 0-.9.2-.9.5 0 .3.7 0 2-.6 3zm19.9-1c0 2.5-.1 2.5-.8.8-.5-1.1-.7-2.3-.4-2.8.8-1.4 1.3-.7 1.2 2zm198.7-.2c-.6 1.7.5 2 2.1.4.7-.7 1.3-.7 1.7-.1.7 1.2-2.9 2.6-4.3 1.7-1-.5-.4-3.5.6-3.5.3 0 .3.7-.1 1.5zm-10.9 8c0 .8-.4 1.2-.9.9-.4-.3-.8-.9-.8-1.5 0-.5.4-.9.8-.9.5 0 .9.7.9 1.5zm11.7 32c-.7 1.7-2 2-2.8.6-.4-.5 0-1.2.6-1.4 2.3-.9 2.8-.7 2.2.8zm-288 1.3c.3.5-.1.9-.9.9s-1.2-.4-.9-.9c.3-.4.7-.8.9-.8.2 0 .6.4.9.8zm22.3.8c-.3.3-1.2.4-1.9.1-.8-.3-.5-.6.6-.6 1.1-.1 1.7.2 1.3.5zm112.3.4c0 .5-.2 1-.4 1-.3 0-.8-.5-1.1-1-.3-.6-.1-1 .4-1 .6 0 1.1.4 1.1 1zm38 0c0 .5-.5 1-1.1 1-.5 0-.7-.5-.4-1 .3-.6.8-1 1.1-1 .2 0 .4.4.4 1zm8 0c0 .5-.5 1-1.1 1-.5 0-.7-.5-.4-1 .3-.6.8-1 1.1-1 .2 0 .4.4.4 1zm101-.6c0 .3-.4.8-1 1.1-.5.3-1 .1-1-.4 0-.6.5-1.1 1-1.1.6 0 1 .2 1 .4zM580.6 5.2c.3.5 1 .6 1.5.3 1.3-.9 1.1-1.2-.6-1.2-.8 0-1.2.4-.9.9z"/><path d="M154.5 686c-.3.5.1 1 1 1s1.3-.5 1-1c-.3-.6-.8-1-1-1-.2 0-.7.4-1 1zM152.1 689c-.7.4.1.7 1.9.8 1.8 0 2.9-.2 2.6-.6-1-.9-3.2-1.1-4.5-.2z"/></svg>