<?xml version="1.0" encoding="UTF-8"?>
<!DOCTYPE svg PUBLIC "-//W3C//DTD SVG 1.1//EN" "http://www.w3.org/Graphics/SVG/1.1/DTD/svg11.dtd">
<!-- Creator: CorelDRAW X6 -->
<svg xmlns="http://www.w3.org/2000/svg" xml:space="preserve" width="5.69444in" height="5.69444in" version="1.1" style="shape-rendering:geometricPrecision; text-rendering:geometricPrecision; image-rendering:optimizeQuality; fill-rule:evenodd; clip-rule:evenodd"
viewBox="0 0 5694 5694"
 xmlns:xlink="http://www.w3.org/1999/xlink">
 <defs>
  <style type="text/css">
   <![CDATA[
    .fil0 {fill:#CD6C9C}
    .fil1 {fill:#FEFEFE;fill-rule:nonzero}
   ]]>
  </style>
 </defs>
 <g id="Layer_x0020_1">
  <metadata id="CorelCorpID_0Corel-Layer"/>
  <path class="fil0" d="M2854 -12c1575,1 2852,1277 2852,2852l0 2c-1,1575 -1278,2852 -2853,2852 -1576,0 -2853,-1277 -2853,-2853 0,-1576 1277,-2853 2852,-2853l2 0z"/>
  <path class="fil1" d="M2286 3792c42,154 37,297 -6,426 -5,14 -10,29 -16,43 -6,14 -12,28 -18,42 -33,69 -77,133 -132,192 -166,181 -397,249 -497,192 -107,-62 -54,-317 139,-520 207,-219 504,-359 504,-359l0 -1c9,-5 17,-9 26,-14zm2357 -2582c-129,-507 -969,-673 -1765,-391 -473,168 -986,432 -1354,777 -438,410 -508,766 -479,915 102,526 822,869 1118,1124l0 2c-87,43 -726,366 -876,697 -158,349 25,599 146,633 375,104 760,-83 967,-392 200,-298 183,-683 96,-874 120,-32 259,-46 437,-25 501,58 599,371 580,502 -19,131 -124,203 -159,224 -35,22 -46,29 -43,45 4,23 21,23 50,18 41,-7 263,-106 272,-348 12,-307 -282,-649 -802,-640 -214,4 -349,24 -446,60 -7,-8 -15,-16 -22,-24 -322,-343 -916,-586 -891,-1047 9,-168 67,-609 1142,-1145 880,-439 1585,-318 1707,-50 174,382 -377,1093 -1291,1195 -348,39 -532,-96 -577,-146 -48,-53 -55,-55 -73,-45 -29,16 -11,63 0,91 27,71 139,197 330,260 168,55 577,85 1072,-106 554,-214 987,-810 859,-1309z"/>
 </g>
</svg>
